<?xml version="1.0" encoding="utf-8"?>
<!-- Generator: Adobe Illustrator 20.0.0, SVG Export Plug-In . SVG Version: 6.00 Build 0)  -->
<svg version="1.1" id="Layer_1" xmlns="http://www.w3.org/2000/svg" xmlns:xlink="http://www.w3.org/1999/xlink" x="0px" y="0px"
	 viewBox="0 0 787 159.3" style="enable-background:new 0 0 787 159.3;" xml:space="preserve">
<style type="text/css">
	.st0{fill:#141414;}
	.st1{fill:#00AFEC;}
</style>
<g>
	<path class="st0" d="M273.3,48.4l-8,16.5c-8.8-5.1-19.9-8.7-26.6-8.7c-5.5,0-9.2,2-9.2,6.1c0,14.4,44,6.2,44,36.3
		c0,16.6-14.7,25.4-33.3,25.4c-13.9,0-28.2-5.2-38-13.3l8.2-16.3c8.6,7.5,21.4,12.5,30.1,12.5c6.7,0,10.8-2.5,10.8-7.3
		c0-14.7-44-5.9-44-35.4c0-15.3,13.2-25.1,33.2-25.1C252.5,39.1,264.7,42.8,273.3,48.4z"/>
	<path class="st0" d="M324.5,119.8c-4.6,2.7-10.9,4.4-17.1,4.4c-12.4,0-21.3-7-21.3-20.3V75.6h-8.9V62.2h8.9V44.4h20.4v17.7h16.8
		v13.6h-16.8v25.1c0,5,2.1,7.1,5.9,7c2.1,0,4.9-0.8,8-2.1L324.5,119.8z"/>
	<path class="st0" d="M389.8,81.4v41.8h-20.1v-7.4c-4.2,5.5-10.9,8.3-19.6,8.3c-13.7,0-22-8.3-22-20.1c0-12.1,8.7-19.3,24.6-19.4
		h16.9v-1c0-6.3-4.2-10.1-12.5-10.1c-5.3,0-12.4,1.9-19.1,5.3l-5.8-13.6c10-4.6,19-7.3,29.7-7.3C379.5,58.3,389.7,66.9,389.8,81.4z
		 M369.6,101.5v-5.7h-13c-6.2,0-9.3,2.1-9.3,6.9c0,4.6,3.3,7.6,9,7.6C362.8,110.3,368.3,106.8,369.6,101.5z"/>
	<path class="st0" d="M459.1,72.9l-14.7,8.9c-3-4.2-7.4-6.7-13-6.7c-8,0-13.4,6.5-13.4,16.2c0,9.9,5.5,16.3,13.4,16.3
		c5.8,0,10.3-2.4,13.1-7.3l15,8.8c-5.2,9.4-15.6,14.9-29.1,14.9c-19.7,0-33-13.1-33-32.6c0-19.7,13.4-32.9,33.3-32.9
		C443.3,58.5,453.5,63.7,459.1,72.9z"/>
	<path class="st0" d="M487,105.8v17.5h-20.6V35.1H487v46.6l21.2-22.5h23.3l-23.5,24.6l24.2,39.5h-24.4l-13.9-24.7L487,105.8z"/>
	<path class="st0" d="M572.8,40.1c20.6,0,32.5,10.2,32.5,27.9c0,18.4-11.9,29-32.5,29h-21.8v26.3h-9.5V40.1H572.8z M551.1,87.9h21.4
		c15,0,23.7-6.7,23.7-19.6c0-12.6-8.7-19-23.7-19h-21.4V87.9z"/>
	<path class="st0" d="M654.2,113.7c-5,6.8-13,10.1-22.9,10.1c-13,0-21.3-8.3-21.3-19.1c0-10.9,8.7-17.8,23.4-17.9h20.6V83
		c0-9.2-5.7-14.6-16.8-14.6c-6.9,0-13.3,2.6-19.9,7.1l-3.9-6.8c8.1-5.3,14.9-8.4,25.6-8.4c15.5,0,24,8.2,24.1,21.6l0.1,41.4h-9
		V113.7z M654.1,101.7v-7.5h-19.5c-10.5,0-15.9,3.2-15.9,10.1c0,6.9,5.6,11.4,14.4,11.4C643.6,115.7,651.7,110.3,654.1,101.7z"/>
	<path class="st0" d="M709,119c-4.4,3-9.2,4.6-14.1,4.8c-9.2,0-15.9-5.5-15.9-17.8V70.2h-9v-7.5h9V46.1h9.2v16.5l19.9-0.1v7.6h-19.9
		v34.1c0,7.6,3,10.5,8.3,10.5c3.2,0,6.5-1.1,10-3.2L709,119z"/>
	<path class="st0" d="M776.6,84.7v38.6h-9.3V87.2c0-11.1-6.7-17.6-17.7-17.6c-13.3,0.1-21.2,9.5-21.2,22.9v30.8h-9.3V35.1h9.3v39.6
		c4.3-9.7,12.8-14.3,24.4-14.4C767.8,60.3,776.6,69.6,776.6,84.7z"/>
</g>
<path class="st1" d="M155.4,47.7H69c-11.1,0-20.2,9-20.2,20.2c0,11.1,9,20.2,20.2,20.2h44.7c3.3,0,5.9,2.7,5.9,5.9
	c0,3.3-2.7,5.9-5.9,5.9H69c-17.7,0-32-14.4-32-32s14.4-32,32-32h79.5l-12.3-21.2c-2-3.5-5.8-5.7-9.9-5.7H56.4
	c-4.1,0-7.9,2.2-9.9,5.7l-35,60.6c-2,3.5-2,7.9,0,11.5l15.9,27.5h86.3c11.1,0,20.2-9,20.2-20.2c0-11.1-9-20.2-20.2-20.2H69.1
	c-3.3,0-5.9-2.7-5.9-5.9c0-3.3,2.7-5.9,5.9-5.9h44.7c17.7,0,32,14.4,32,32c0,17.7-14.4,32-32,32H34.2l12.2,21.2
	c2,3.5,5.8,5.7,9.9,5.7h69.9c4.1,0,7.9-2.2,9.9-5.7l35-60.6c2-3.5,2-7.9,0-11.5L155.4,47.7z"/>
</svg>
